adventprofmm-Bold.ufo
<glyph name="percent" format="1">
  <advance width="728"/>
  <unicode hex="0025"/>
  <outline>
    <contour>
      <point x="35" y="0" type="line"/>
      <point x="572" y="698" type="line"/>
      <point x="689" y="698" type="line"/>
      <point x="149" y="0" type="line"/>
    </contour>
    <contour>
      <point x="187" y="713" type="qcurve" smooth="yes"/>
      <point x="227" y="713"/>
      <point x="292" y="674"/>
      <point x="332" y="608"/>
      <point x="332" y="568" type="qcurve" smooth="yes"/>
      <point x="332" y="528"/>
      <point x="292" y="461"/>
      <point x="227" y="422"/>
      <point x="187" y="422" type="qcurve" smooth="yes"/>
      <point x="147" y="422"/>
      <point x="80" y="461"/>
      <point x="41" y="528"/>
      <point x="41" y="568" type="qcurve" smooth="yes"/>
      <point x="41" y="608"/>
      <point x="80" y="674"/>
      <point x="147" y="713"/>
    </contour>
    <contour>
      <point x="187" y="620" type="qcurve" smooth="yes"/>
      <point x="172" y="620"/>
      <point x="148" y="606"/>
      <point x="134" y="582"/>
      <point x="134" y="568" type="qcurve" smooth="yes"/>
      <point x="134" y="554"/>
      <point x="148" y="529"/>
      <point x="172" y="515"/>
      <point x="187" y="515" type="qcurve" smooth="yes"/>
      <point x="201" y="515"/>
      <point x="224" y="529"/>
      <point x="239" y="554"/>
      <point x="239" y="568" type="qcurve" smooth="yes"/>
      <point x="239" y="582"/>
      <point x="224" y="606"/>
      <point x="201" y="620"/>
    </contour>
    <contour>
      <point x="547" y="277" type="qcurve" smooth="yes"/>
      <point x="587" y="277"/>
      <point x="653" y="238"/>
      <point x="692" y="172"/>
      <point x="692" y="131" type="qcurve" smooth="yes"/>
      <point x="692" y="91"/>
      <point x="653" y="25"/>
      <point x="587" y="-14"/>
      <point x="547" y="-14" type="qcurve" smooth="yes"/>
      <point x="507" y="-14"/>
      <point x="440" y="25"/>
      <point x="401" y="91"/>
      <point x="401" y="131" type="qcurve" smooth="yes"/>
      <point x="401" y="172"/>
      <point x="440" y="238"/>
      <point x="507" y="277"/>
    </contour>
    <contour>
      <point x="547" y="184" type="qcurve" smooth="yes"/>
      <point x="533" y="184"/>
      <point x="509" y="169"/>
      <point x="495" y="145"/>
      <point x="495" y="131" type="qcurve" smooth="yes"/>
      <point x="495" y="117"/>
      <point x="509" y="93"/>
      <point x="533" y="79"/>
      <point x="547" y="79" type="qcurve" smooth="yes"/>
      <point x="561" y="79"/>
      <point x="584" y="93"/>
      <point x="598" y="117"/>
      <point x="598" y="131" type="qcurve" smooth="yes"/>
      <point x="598" y="145"/>
      <point x="584" y="169"/>
      <point x="561" y="184"/>
    </contour>
  </outline>
</glyph>
<glyph name="ampersand" format="1">
  <advance width="529"/>
  <unicode hex="0026"/>
  <outline>
    <contour>
      <point x="383" y="588" type="line"/>
      <point x="246" y="588" type="line" smooth="yes"/>
      <point x="233" y="588"/>
      <point x="203" y="581"/>
      <point x="182" y="561"/>
      <point x="182" y="539" type="qcurve" smooth="yes"/>
      <point x="182" y="516"/>
      <point x="198" y="477"/>
      <point x="226" y="444"/>
      <point x="259" y="416"/>
      <point x="277" y="403" type="qcurve"/>
      <point x="289" y="403" type="line"/>
      <point x="289" y="506" type="line"/>
      <point x="399" y="506" type="line"/>
      <point x="399" y="403" type="line"/>
      <point x="498" y="403" type="line"/>
      <point x="475" y="306" type="line"/>
      <point x="404" y="306" type="line"/>
      <point x="404" y="136" type="line" smooth="yes"/>
      <point x="404" y="102"/>
      <point x="442" y="80"/>
      <point x="476" y="80" type="qcurve"/>
      <point x="443" y="-8" type="line"/>
      <point x="397" y="-7"/>
      <point x="333" y="21"/>
      <point x="314" y="48" type="qcurve"/>
      <point x="297" y="32"/>
      <point x="256" y="10"/>
      <point x="213" y="-2"/>
      <point x="192" y="-2" type="qcurve" smooth="yes"/>
      <point x="163" y="-2"/>
      <point x="106" y="14"/>
      <point x="59" y="50"/>
      <point x="31" y="113"/>
      <point x="31" y="161" type="qcurve" smooth="yes"/>
      <point x="31" y="256" type="line" smooth="yes"/>
      <point x="31" y="294"/>
      <point x="49" y="350"/>
      <point x="82" y="386"/>
      <point x="127" y="403"/>
      <point x="155" y="403" type="qcurve" smooth="yes"/>
      <point x="169" y="403" type="line"/>
      <point x="141" y="418"/>
      <point x="97" y="463"/>
      <point x="73" y="520"/>
      <point x="73" y="554" type="qcurve" smooth="yes"/>
      <point x="73" y="597"/>
      <point x="117" y="663"/>
      <point x="191" y="700"/>
      <point x="236" y="700" type="qcurve" smooth="yes"/>
      <point x="404" y="700" type="line"/>
    </contour>
    <contour>
      <point x="289" y="310" type="line"/>
      <point x="201" y="310" type="line" smooth="yes"/>
      <point x="185" y="310"/>
      <point x="157" y="300"/>
      <point x="140" y="277"/>
      <point x="140" y="258" type="qcurve" smooth="yes"/>
      <point x="140" y="164" type="line" smooth="yes"/>
      <point x="140" y="136"/>
      <point x="177" y="98"/>
      <point x="209" y="98" type="qcurve" smooth="yes"/>
      <point x="229" y="98"/>
      <point x="262" y="115"/>
      <point x="285" y="146"/>
      <point x="289" y="167" type="qcurve"/>
    </contour>
  </outline>
</glyph>
<glyph name="comma" format="1">
  <advance width="187"/>
  <unicode hex="002C"/>
  <outline>
    <contour>
      <point x="61" y="-66" type="line"/>
      <point x="69" y="-52"/>
      <point x="76" y="-23"/>
      <point x="79" y="-8" type="qcurve"/>
      <point x="59" y="-3"/>
      <point x="34" y="29"/>
      <point x="34" y="50" type="qcurve" smooth="yes"/>
      <point x="34" y="74"/>
      <point x="69" y="109"/>
      <point x="94" y="109" type="qcurve" smooth="yes"/>
      <point x="118" y="109"/>
      <point x="152" y="74"/>
      <point x="152" y="50" type="qcurve" smooth="yes"/>
      <point x="152" y="16"/>
      <point x="132" y="-34"/>
      <point x="105" y="-67"/>
      <point x="85" y="-83"/>
      <point x="85" y="-83" type="qcurve"/>
    </contour>
  </outline>
</glyph>
<glyph name="one" format="1">
  <advance width="285"/>
  <unicode hex="0031"/>
  <outline>
    <contour>
      <point x="18" y="627" type="line"/>
      <point x="18" y="627"/>
      <point x="59" y="640"/>
      <point x="113" y="671"/>
      <point x="132" y="698" type="qcurve"/>
      <point x="242" y="698" type="line"/>
      <point x="242" y="0" type="line"/>
      <point x="131" y="0" type="line"/>
      <point x="132" y="557" type="line"/>
      <point x="121" y="549"/>
      <point x="82" y="537"/>
      <point x="51" y="531"/>
      <point x="51" y="531" type="qcurve"/>
    </contour>
  </outline>
</glyph>
<glyph name="five" format="1">
  <advance width="444"/>
  <unicode hex="0035"/>
  <outline>
    <contour>
      <point x="185" y="411" type="line"/>
      <point x="195" y="411" type="line"/>
      <point x="270" y="409"/>
      <point x="367" y="350"/>
      <point x="414" y="256"/>
      <point x="414" y="199" type="qcurve" smooth="yes"/>
      <point x="414" y="165"/>
      <point x="387" y="91"/>
      <point x="334" y="27"/>
      <point x="255" y="-12"/>
      <point x="202" y="-12" type="qcurve" smooth="yes"/>
      <point x="164" y="-12"/>
      <point x="98" y="4"/>
      <point x="48" y="26"/>
      <point x="20" y="42"/>
      <point x="20" y="42" type="qcurve"/>
      <point x="60" y="137" type="line"/>
      <point x="60" y="137"/>
      <point x="94" y="117"/>
      <point x="157" y="97"/>
      <point x="200" y="97" type="qcurve" smooth="yes"/>
      <point x="234" y="97"/>
      <point x="281" y="126"/>
      <point x="305" y="175"/>
      <point x="305" y="204" type="qcurve" smooth="yes"/>
      <point x="305" y="242"/>
      <point x="273" y="289"/>
      <point x="212" y="310"/>
      <point x="169" y="310" type="qcurve" smooth="yes"/>
      <point x="69" y="310" type="line"/>
      <point x="92" y="698" type="line"/>
      <point x="358" y="698" type="line"/>
      <point x="358" y="588" type="line"/>
      <point x="194" y="588" type="line"/>
    </contour>
  </outline>
</glyph>
<glyph name="seven" format="1">
  <advance width="464"/>
  <unicode hex="0037"/>
  <outline>
    <contour>
      <point x="148" y="0" type="line"/>
      <point x="27" y="0" type="line"/>
      <point x="317" y="588" type="line"/>
      <point x="48" y="588" type="line"/>
      <point x="48" y="698" type="line"/>
      <point x="441" y="698" type="line"/>
      <point x="441" y="588" type="line"/>
    </contour>
  </outline>
</glyph>
<glyph name="B" format="1">
  <advance width="505"/>
  <unicode hex="0042"/>
  <outline>
    <contour>
      <point x="245" y="698" type="line" smooth="yes"/>
      <point x="332" y="698"/>
      <point x="438" y="605"/>
      <point x="438" y="521" type="qcurve" smooth="yes"/>
      <point x="438" y="475"/>
      <point x="404" y="407"/>
      <point x="371" y="384" type="qcurve"/>
      <point x="371" y="381" type="line"/>
      <point x="415" y="361"/>
      <point x="474" y="273"/>
      <point x="474" y="205" type="qcurve" smooth="yes"/>
      <point x="474" y="112"/>
      <point x="364" y="0"/>
      <point x="260" y="0" type="qcurve" smooth="yes"/>
      <point x="41" y="0" type="line"/>
      <point x="41" y="698" type="line"/>
    </contour>
    <contour>
      <point x="199" y="413" type="line" smooth="yes"/>
      <point x="238" y="413"/>
      <point x="287" y="430"/>
      <point x="310" y="471"/>
      <point x="310" y="505" type="qcurve" smooth="yes"/>
      <point x="310" y="552"/>
      <point x="260" y="588"/>
      <point x="209" y="588" type="qcurve" smooth="yes"/>
      <point x="151" y="588" type="line"/>
      <point x="151" y="413" type="line"/>
    </contour>
    <contour>
      <point x="231" y="101" type="line" smooth="yes"/>
      <point x="255" y="101"/>
      <point x="310" y="118"/>
      <point x="348" y="164"/>
      <point x="348" y="207" type="qcurve" smooth="yes"/>
      <point x="348" y="257"/>
      <point x="285" y="307"/>
      <point x="221" y="307" type="qcurve" smooth="yes"/>
      <point x="151" y="307" type="line"/>
      <point x="151" y="101" type="line"/>
    </contour>
  </outline>
</glyph>
<glyph name="D" format="1">
  <advance width="497"/>
  <unicode hex="0044"/>
    <anchor name="top" x="248" y="735"/>
  <outline>
    <contour>
      <point x="229" y="700" type="line" smooth="yes"/>
      <point x="342" y="700"/>
      <point x="461" y="575"/>
      <point x="461" y="473" type="qcurve" smooth="yes"/>
      <point x="461" y="206" type="line" smooth="yes"/>
      <point x="461" y="107"/>
      <point x="355" y="0"/>
      <point x="249" y="0" type="qcurve" smooth="yes"/>
      <point x="41" y="0" type="line"/>
      <point x="41" y="700" type="line"/>
    </contour>
    <contour>
      <point x="234" y="101" type="line" smooth="yes"/>
      <point x="290" y="101"/>
      <point x="339" y="132"/>
      <point x="351" y="176"/>
      <point x="351" y="196" type="qcurve" smooth="yes"/>
      <point x="351" y="483" type="line" smooth="yes"/>
      <point x="351" y="519"/>
      <point x="327" y="565"/>
      <point x="277" y="588"/>
      <point x="239" y="588" type="qcurve" smooth="yes"/>
      <point x="151" y="588" type="line"/>
      <point x="151" y="101" type="line"/>
    </contour>
    <contour>
      <point x="248" y="735" type="move" name="top"/>
    </contour>
  </outline>
</glyph>
<glyph name="G" format="1">
  <advance width="480"/>
  <unicode hex="0047"/>
    <anchor name="bottom" x="240" y="0"/>
    <anchor name="top" x="240" y="735"/>
  <outline>
    <contour>
      <point x="339" y="576" type="line"/>
      <point x="315" y="584"/>
      <point x="269" y="594"/>
      <point x="248" y="594" type="qcurve" smooth="yes"/>
      <point x="229" y="594"/>
      <point x="196" y="589"/>
      <point x="183" y="583" type="qcurve" smooth="yes"/>
      <point x="165" y="574"/>
      <point x="146" y="539"/>
      <point x="146" y="510" type="qcurve" smooth="yes"/>
      <point x="146" y="187" type="line" smooth="yes"/>
      <point x="146" y="139"/>
      <point x="197" y="101"/>
      <point x="246" y="101" type="qcurve" smooth="yes"/>
      <point x="295" y="101"/>
      <point x="317" y="125" type="qcurve" smooth="yes"/>
      <point x="326" y="136"/>
      <point x="337" y="166"/>
      <point x="337" y="186" type="qcurve" smooth="yes"/>
      <point x="337" y="195" type="line"/>
      <point x="280" y="195" type="line"/>
      <point x="245" y="300" type="line"/>
      <point x="447" y="300" type="line"/>
      <point x="447" y="0" type="line"/>
      <point x="371" y="0" type="line"/>
      <point x="366" y="28" type="line"/>
      <point x="349" y="14"/>
      <point x="302" y="-3"/>
      <point x="260" y="-10"/>
      <point x="247" y="-10" type="qcurve" smooth="yes"/>
      <point x="202" y="-10"/>
      <point x="129" y="12"/>
      <point x="98" y="37" type="qcurve" smooth="yes"/>
      <point x="67" y="62"/>
      <point x="36" y="140"/>
      <point x="36" y="189" type="qcurve" smooth="yes"/>
      <point x="36" y="502" type="line" smooth="yes"/>
      <point x="36" y="566"/>
      <point x="80" y="657"/>
      <point x="123" y="683" type="qcurve" smooth="yes"/>
      <point x="146" y="696"/>
      <point x="202" y="708"/>
      <point x="242" y="708" type="qcurve"/>
      <point x="313" y="705"/>
      <point x="372" y="675" type="qcurve"/>
    </contour>
    <contour>
      <point x="240" y="0" type="move" name="bottom"/>
    </contour>
    <contour>
      <point x="240" y="735" type="move" name="top"/>
    </contour>
  </outline>
</glyph>
<glyph name="N" format="1">
  <advance width="576"/>
  <unicode hex="004E"/>
    <anchor name="top" x="288" y="735"/>
    <anchor name="bottom" x="288" y="0"/>
  <outline>
    <contour>
      <point x="533" y="698" type="line"/>
      <point x="533" y="0" type="line"/>
      <point x="422" y="0" type="line"/>
      <point x="151" y="472" type="line"/>
      <point x="151" y="0" type="line"/>
      <point x="41" y="0" type="line"/>
      <point x="41" y="698" type="line"/>
      <point x="151" y="698" type="line"/>
      <point x="422" y="210" type="line"/>
      <point x="422" y="698" type="line"/>
    </contour>
    <contour>
      <point x="288" y="735" type="move" name="top"/>
    </contour>
    <contour>
      <point x="288" y="0" type="move" name="bottom"/>
    </contour>
  </outline>
</glyph>
<glyph name="Q" format="1">
  <advance width="493"/>
  <unicode hex="0051"/>
  <outline>
    <contour>
      <point x="295" y="45" type="line" smooth="yes"/>
      <point x="295" y="23"/>
      <point x="310" y="-7"/>
      <point x="357" y="-22"/>
      <point x="404" y="-22" type="qcurve"/>
      <point x="390" y="-117" type="line"/>
      <point x="311" y="-117"/>
      <point x="227" y="-77"/>
      <point x="197" y="-9"/>
      <point x="197" y="31" type="qcurve" smooth="yes"/>
      <point x="197" y="173" type="line"/>
      <point x="295" y="173" type="line"/>
    </contour>
    <component base="O"/>
  </outline>
</glyph>
<glyph name="asciicircum" format="1">
  <advance width="266"/>
  <unicode hex="005E"/>
  <outline>
    <contour>
      <point x="263" y="772" type="line"/>
      <point x="209" y="719" type="line"/>
      <point x="135" y="801" type="line"/>
      <point x="55" y="718" type="line"/>
      <point x="3" y="771" type="line"/>
      <point x="135" y="898" type="line"/>
    </contour>
  </outline>
</glyph>
<glyph name="b" format="1">
  <advance width="457"/>
  <unicode hex="0062"/>
  <outline>
    <contour>
      <point x="151" y="482" type="line"/>
      <point x="183" y="496"/>
      <point x="242" y="508"/>
      <point x="276" y="508" type="qcurve" smooth="yes"/>
      <point x="304" y="508"/>
      <point x="357" y="490"/>
      <point x="400" y="453"/>
      <point x="425" y="397"/>
      <point x="425" y="359" type="qcurve"/>
      <point x="425" y="359"/>
      <point x="425" y="318"/>
      <point x="425" y="257"/>
      <point x="425" y="197"/>
      <point x="425" y="155"/>
      <point x="425" y="155" type="qcurve"/>
      <point x="422" y="90"/>
      <point x="366" y="18"/>
      <point x="274" y="-11"/>
      <point x="217" y="-11" type="qcurve" smooth="yes"/>
      <point x="195" y="-11"/>
      <point x="151" y="-9"/>
      <point x="107" y="-5"/>
      <point x="63" y="-1"/>
      <point x="41" y="0" type="qcurve"/>
      <point x="41" y="698" type="line"/>
      <point x="151" y="698" type="line"/>
    </contour>
    <contour>
      <point x="151" y="94" type="qcurve"/>
      <point x="151" y="94"/>
      <point x="165" y="93"/>
      <point x="184" y="92"/>
      <point x="204" y="91"/>
      <point x="210" y="91" type="qcurve" smooth="yes"/>
      <point x="245" y="91"/>
      <point x="286" y="103"/>
      <point x="308" y="124"/>
      <point x="315" y="155"/>
      <point x="315" y="174" type="qcurve" smooth="yes"/>
      <point x="315" y="181"/>
      <point x="315" y="229"/>
      <point x="315" y="288"/>
      <point x="315" y="337"/>
      <point x="315" y="345" type="qcurve" smooth="yes"/>
      <point x="315" y="364"/>
      <point x="293" y="385"/>
      <point x="261" y="394"/>
      <point x="246" y="394" type="qcurve" smooth="yes"/>
      <point x="211" y="394"/>
      <point x="159" y="375"/>
      <point x="151" y="370" type="qcurve"/>
      <point x="151" y="370"/>
      <point x="151" y="340"/>
      <point x="151" y="291"/>
      <point x="151" y="232"/>
      <point x="151" y="173"/>
      <point x="151" y="124"/>
    </contour>
  </outline>
</glyph>
<glyph name="c" format="1">
  <advance width="384"/>
  <unicode hex="0063"/>
    <anchor name="bottom" x="192" y="0"/>
    <anchor name="top" x="192" y="545"/>
  <outline>
    <contour>
      <point x="326" y="392" type="line"/>
      <point x="300" y="404"/>
      <point x="238" y="418"/>
      <point x="209" y="413" type="qcurve" smooth="yes"/>
      <point x="192" y="410"/>
      <point x="162" y="394"/>
      <point x="153" y="380" type="qcurve"/>
      <point x="148" y="370"/>
      <point x="140" y="346"/>
      <point x="140" y="331" type="qcurve" smooth="yes"/>
      <point x="140" y="174" type="line" smooth="yes"/>
      <point x="140" y="128"/>
      <point x="198" y="84"/>
      <point x="244" y="84" type="qcurve" smooth="yes"/>
      <point x="260" y="84"/>
      <point x="292" y="87"/>
      <point x="318" y="91"/>
      <point x="333" y="94"/>
      <point x="333" y="94" type="qcurve"/>
      <point x="353" y="5" type="line"/>
      <point x="304" y="-8"/>
      <point x="196" y="-15"/>
      <point x="143" y="1" type="qcurve"/>
      <point x="92" y="18"/>
      <point x="31" y="100"/>
      <point x="31" y="173" type="qcurve" smooth="yes"/>
      <point x="31" y="319" type="line"/>
      <point x="33" y="352"/>
      <point x="45" y="403"/>
      <point x="59" y="427" type="qcurve" smooth="yes"/>
      <point x="79" y="460"/>
      <point x="135" y="498"/>
      <point x="169" y="505" type="qcurve" smooth="yes"/>
      <point x="214" y="515"/>
      <point x="308" y="497"/>
      <point x="351" y="477" type="qcurve"/>
    </contour>
    <contour>
      <point x="192" y="0" type="move" name="bottom"/>
    </contour>
    <contour>
      <point x="192" y="545" type="move" name="top"/>
    </contour>
  </outline>
</glyph>
<glyph name="e" format="1">
  <advance width="425"/>
  <unicode hex="0065"/>
    <anchor name="top" x="212" y="545"/>
    <anchor name="ogonek" x="211" y="0"/>
  <outline>
    <contour>
      <point x="144" y="148" type="line" smooth="yes"/>
      <point x="144" y="134"/>
      <point x="152" y="114"/>
      <point x="159" y="106" type="qcurve" smooth="yes"/>
      <point x="164" y="101"/>
      <point x="176" y="93"/>
      <point x="192" y="90"/>
      <point x="201" y="90" type="qcurve" smooth="yes"/>
      <point x="228" y="90"/>
      <point x="296" y="114"/>
      <point x="328" y="130" type="qcurve"/>
      <point x="368" y="35" type="line"/>
      <point x="333" y="13"/>
      <point x="243" y="-13"/>
      <point x="198" y="-13" type="qcurve" smooth="yes"/>
      <point x="176" y="-13"/>
      <point x="135" y="-6"/>
      <point x="99" y="9"/>
      <point x="83" y="20" type="qcurve" smooth="yes"/>
      <point x="61" y="37"/>
      <point x="33" y="94"/>
      <point x="33" y="134" type="qcurve" smooth="yes"/>
      <point x="33" y="339" type="line" smooth="yes"/>
      <point x="33" y="383"/>
      <point x="65" y="450"/>
      <point x="93" y="472" type="qcurve" smooth="yes"/>
      <point x="141" y="509"/>
      <point x="217" y="509" type="qcurve" smooth="yes"/>
      <point x="288" y="509"/>
      <point x="332" y="477" type="qcurve" smooth="yes"/>
      <point x="393" y="433"/>
      <point x="393" y="342" type="qcurve" smooth="yes"/>
      <point x="393" y="186" type="line"/>
      <point x="144" y="173" type="line"/>
    </contour>
    <contour>
      <point x="282" y="312" type="qcurve" smooth="yes"/>
      <point x="282" y="339"/>
      <point x="275" y="375"/>
      <point x="261" y="388" type="qcurve" smooth="yes"/>
      <point x="254" y="395"/>
      <point x="232" y="404"/>
      <point x="216" y="404" type="qcurve"/>
      <point x="198" y="403"/>
      <point x="171" y="393"/>
      <point x="163" y="385" type="qcurve" smooth="yes"/>
      <point x="150" y="372"/>
      <point x="144" y="337"/>
      <point x="144" y="313" type="qcurve" smooth="yes"/>
      <point x="144" y="306"/>
      <point x="144" y="282"/>
      <point x="144" y="274" type="qcurve"/>
      <point x="282" y="283" type="line"/>
      <point x="282" y="288"/>
      <point x="282" y="307"/>
    </contour>
    <contour>
      <point x="212" y="545" type="move" name="top"/>
    </contour>
    <contour>
      <point x="211" y="0" type="move" name="ogonek"/>
    </contour>
  </outline>
</glyph>
<glyph name="h" format="1">
  <advance width="445"/>
  <unicode hex="0068"/>
    <anchor name="top" x="222" y="735"/>
  <outline>
    <contour>
      <point x="150" y="476" type="line"/>
      <point x="163" y="485"/>
      <point x="219" y="509"/>
      <point x="250" y="509" type="qcurve" smooth="yes"/>
      <point x="280" y="509"/>
      <point x="337" y="493"/>
      <point x="383" y="457"/>
      <point x="411" y="393"/>
      <point x="411" y="345" type="qcurve" smooth="yes"/>
      <point x="411" y="0" type="line"/>
      <point x="302" y="0" type="line"/>
      <point x="302" y="343" type="line" smooth="yes"/>
      <point x="302" y="362"/>
      <point x="284" y="392"/>
      <point x="251" y="409"/>
      <point x="230" y="409" type="qcurve" smooth="yes"/>
      <point x="213" y="409"/>
      <point x="174" y="398"/>
      <point x="150" y="386" type="qcurve"/>
      <point x="150" y="0" type="line"/>
      <point x="41" y="0" type="line"/>
      <point x="41" y="698" type="line"/>
      <point x="150" y="698" type="line"/>
    </contour>
    <contour>
      <point x="222" y="735" type="move" name="top"/>
    </contour>
  </outline>
</glyph>
<glyph name="i" format="1">
  <advance width="200"/>
  <unicode hex="0069"/>
  <outline>
    <contour>
      <point x="44" y="0" type="line"/>
      <point x="44" y="499" type="line"/>
      <point x="154" y="499" type="line"/>
      <point x="154" y="0" type="line"/>
    </contour>
    <contour>
      <point x="99" y="708" type="qcurve" smooth="yes"/>
      <point x="124" y="708"/>
      <point x="159" y="675"/>
      <point x="159" y="650" type="qcurve" smooth="yes"/>
      <point x="159" y="625"/>
      <point x="124" y="590"/>
      <point x="99" y="590" type="qcurve" smooth="yes"/>
      <point x="74" y="590"/>
      <point x="40" y="625"/>
      <point x="40" y="650" type="qcurve" smooth="yes"/>
      <point x="40" y="675"/>
      <point x="74" y="708"/>
    </contour>
  </outline>
</glyph>
<glyph name="j" format="1">
  <advance width="258"/>
  <unicode hex="006A"/>
  <outline>
    <contour>
      <point x="211" y="-61" type="line" smooth="yes"/>
      <point x="211" y="-102"/>
      <point x="185" y="-157"/>
      <point x="163" y="-177" type="qcurve" smooth="yes"/>
      <point x="142" y="-196"/>
      <point x="81" y="-215"/>
      <point x="59" y="-215" type="qcurve"/>
      <point x="29" y="-125" type="line"/>
      <point x="46" y="-121"/>
      <point x="70" y="-112"/>
      <point x="80" y="-102" type="qcurve" smooth="yes"/>
      <point x="89" y="-94"/>
      <point x="101" y="-68"/>
      <point x="101" y="-50" type="qcurve" smooth="yes"/>
      <point x="101" y="400" type="line"/>
      <point x="28" y="410" type="line"/>
      <point x="28" y="499" type="line"/>
      <point x="211" y="499" type="line"/>
    </contour>
    <contour>
      <point x="217" y="649" type="qcurve" smooth="yes"/>
      <point x="217" y="625"/>
      <point x="182" y="590"/>
      <point x="157" y="590" type="qcurve" smooth="yes"/>
      <point x="132" y="590"/>
      <point x="97" y="625"/>
      <point x="97" y="649" type="qcurve" smooth="yes"/>
      <point x="97" y="674"/>
      <point x="132" y="708"/>
      <point x="157" y="708" type="qcurve" smooth="yes"/>
      <point x="182" y="708"/>
      <point x="217" y="674"/>
    </contour>
  </outline>
</glyph>
<glyph name="m" format="1">
  <advance width="719"/>
  <unicode hex="006D"/>
  <outline>
    <contour>
      <point x="572" y="341" type="line" smooth="yes"/>
      <point x="572" y="361"/>
      <point x="551" y="391"/>
      <point x="515" y="408"/>
      <point x="494" y="408" type="qcurve" smooth="yes"/>
      <point x="481" y="408"/>
      <point x="435" y="396"/>
      <point x="412" y="384" type="qcurve"/>
      <point x="414" y="375"/>
      <point x="415" y="355"/>
      <point x="415" y="344" type="qcurve" smooth="yes"/>
      <point x="415" y="0" type="line"/>
      <point x="305" y="0" type="line"/>
      <point x="305" y="341" type="line" smooth="yes"/>
      <point x="305" y="361"/>
      <point x="285" y="391"/>
      <point x="250" y="408"/>
      <point x="229" y="408" type="qcurve" smooth="yes"/>
      <point x="212" y="408"/>
      <point x="172" y="396"/>
      <point x="149" y="384" type="qcurve"/>
      <point x="149" y="0" type="line"/>
      <point x="39" y="0" type="line"/>
      <point x="39" y="499" type="line"/>
      <point x="149" y="499" type="line"/>
      <point x="149" y="475" type="line"/>
      <point x="161" y="483"/>
      <point x="217" y="507"/>
      <point x="248" y="507" type="qcurve" smooth="yes"/>
      <point x="283" y="507"/>
      <point x="352" y="486"/>
      <point x="377" y="459" type="qcurve"/>
      <point x="409" y="481"/>
      <point x="489" y="507"/>
      <point x="514" y="507" type="qcurve" smooth="yes"/>
      <point x="544" y="507"/>
      <point x="603" y="492"/>
      <point x="652" y="455"/>
      <point x="682" y="392"/>
      <point x="682" y="344" type="qcurve" smooth="yes"/>
      <point x="682" y="0" type="line"/>
      <point x="572" y="0" type="line"/>
    </contour>
  </outline>
</glyph>
<glyph name="n" format="1">
  <advance width="445"/>
  <unicode hex="006E"/>
    <anchor name="top" x="222" y="545"/>
    <anchor name="bottom" x="222" y="0"/>
  <outline>
    <contour>
      <point x="299" y="342" type="line" smooth="yes"/>
      <point x="299" y="361"/>
      <point x="281" y="391"/>
      <point x="249" y="409"/>
      <point x="228" y="409" type="qcurve" smooth="yes"/>
      <point x="211" y="409"/>
      <point x="172" y="398"/>
      <point x="148" y="385" type="qcurve"/>
      <point x="148" y="-1" type="line"/>
      <point x="39" y="-1" type="line"/>
      <point x="39" y="499" type="line"/>
      <point x="148" y="499" type="line"/>
      <point x="148" y="476" type="line"/>
      <point x="161" y="484"/>
      <point x="217" y="508"/>
      <point x="248" y="508" type="qcurve" smooth="yes"/>
      <point x="278" y="508"/>
      <point x="335" y="493"/>
      <point x="381" y="456"/>
      <point x="408" y="393"/>
      <point x="408" y="345" type="qcurve" smooth="yes"/>
      <point x="408" y="-1" type="line"/>
      <point x="299" y="-1" type="line"/>
    </contour>
    <contour>
      <point x="222" y="545" type="move" name="top"/>
    </contour>
    <contour>
      <point x="222" y="0" type="move" name="bottom"/>
    </contour>
  </outline>
</glyph>
<glyph name="p" format="1">
  <advance width="443"/>
  <unicode hex="0070"/>
  <outline>
    <contour>
      <point x="409" y="176" type="line" smooth="yes"/>
      <point x="409" y="84"/>
      <point x="323" y="-12"/>
      <point x="240" y="-12" type="qcurve" smooth="yes"/>
      <point x="224" y="-12"/>
      <point x="191" y="-6"/>
      <point x="162" y="5"/>
      <point x="150" y="12" type="qcurve"/>
      <point x="150" y="-213" type="line"/>
      <point x="40" y="-199" type="line"/>
      <point x="40" y="499" type="line"/>
      <point x="150" y="499" type="line"/>
      <point x="150" y="477" type="line"/>
      <point x="157" y="484"/>
      <point x="190" y="498"/>
      <point x="233" y="509"/>
      <point x="252" y="509" type="qcurve" smooth="yes"/>
      <point x="328" y="509"/>
      <point x="409" y="421"/>
      <point x="409" y="345" type="qcurve" smooth="yes"/>
    </contour>
    <contour>
      <point x="299" y="337" type="line" smooth="yes"/>
      <point x="299" y="365"/>
      <point x="278" y="397"/>
      <point x="245" y="410"/>
      <point x="226" y="410" type="qcurve" smooth="yes"/>
      <point x="209" y="410"/>
      <point x="174" y="398"/>
      <point x="150" y="386"/>
      <point x="150" y="386" type="qcurve"/>
      <point x="150" y="139" type="line" smooth="yes"/>
      <point x="150" y="121"/>
      <point x="179" y="98"/>
      <point x="219" y="88"/>
      <point x="235" y="88" type="qcurve" smooth="yes"/>
      <point x="266" y="88"/>
      <point x="299" y="127"/>
      <point x="299" y="159" type="qcurve" smooth="yes"/>
    </contour>
  </outline>
</glyph>
<glyph name="s" format="1">
  <advance width="426"/>
  <unicode hex="0073"/>
    <anchor name="bottom" x="213" y="0"/>
    <anchor name="top" x="213" y="545"/>
  <outline>
    <contour>
      <point x="314" y="385" type="line"/>
      <point x="303" y="391"/>
      <point x="275" y="400"/>
      <point x="244" y="405"/>
      <point x="227" y="405" type="qcurve" smooth="yes"/>
      <point x="212" y="405"/>
      <point x="192" y="401"/>
      <point x="184" y="398" type="qcurve"/>
      <point x="172" y="391"/>
      <point x="164" y="376"/>
      <point x="164" y="370" type="qcurve" smooth="yes"/>
      <point x="164" y="359"/>
      <point x="188" y="339"/>
      <point x="205" y="331" type="qcurve" smooth="yes"/>
      <point x="217" y="325"/>
      <point x="244" y="314"/>
      <point x="258" y="309" type="qcurve" smooth="yes"/>
      <point x="278" y="302"/>
      <point x="321" y="280"/>
      <point x="340" y="263" type="qcurve"/>
      <point x="364" y="244"/>
      <point x="397" y="184"/>
      <point x="397" y="145" type="qcurve" smooth="yes"/>
      <point x="397" y="105"/>
      <point x="363" y="43"/>
      <point x="335" y="21" type="qcurve"/>
      <point x="311" y="4"/>
      <point x="249" y="-15"/>
      <point x="214" y="-15" type="qcurve" smooth="yes"/>
      <point x="184" y="-15"/>
      <point x="132" y="-2"/>
      <point x="112" y="8" type="qcurve" smooth="yes"/>
      <point x="81" y="23"/>
      <point x="38" y="58"/>
      <point x="27" y="70" type="qcurve"/>
      <point x="91" y="137" type="line"/>
      <point x="99" y="130"/>
      <point x="127" y="110"/>
      <point x="145" y="102" type="qcurve" smooth="yes"/>
      <point x="158" y="96"/>
      <point x="190" y="88"/>
      <point x="207" y="88" type="qcurve" smooth="yes"/>
      <point x="223" y="88"/>
      <point x="250" y="96"/>
      <point x="259" y="102" type="qcurve" smooth="yes"/>
      <point x="268" y="109"/>
      <point x="279" y="128"/>
      <point x="280" y="139" type="qcurve"/>
      <point x="280" y="153"/>
      <point x="267" y="175"/>
      <point x="259" y="183" type="qcurve" smooth="yes"/>
      <point x="248" y="194"/>
      <point x="218" y="208"/>
      <point x="203" y="215" type="qcurve" smooth="yes"/>
      <point x="184" y="223"/>
      <point x="140" y="241"/>
      <point x="118" y="254" type="qcurve"/>
      <point x="91" y="272"/>
      <point x="51" y="327"/>
      <point x="51" y="370" type="qcurve" smooth="yes"/>
      <point x="51" y="409"/>
      <point x="88" y="466"/>
      <point x="118" y="484" type="qcurve" smooth="yes"/>
      <point x="142" y="498"/>
      <point x="199" y="512"/>
      <point x="229" y="512" type="qcurve" smooth="yes"/>
      <point x="250" y="512"/>
      <point x="291" y="504"/>
      <point x="331" y="488"/>
      <point x="348" y="476" type="qcurve"/>
    </contour>
    <contour>
      <point x="213" y="0" type="move" name="bottom"/>
    </contour>
    <contour>
      <point x="213" y="545" type="move" name="top"/>
    </contour>
  </outline>
</glyph>
<glyph name="braceleft" format="1">
  <advance width="291"/>
  <unicode hex="007B"/>
  <outline>
    <contour>
      <point x="215" y="516" type="line" smooth="yes"/>
      <point x="215" y="473"/>
      <point x="195" y="391"/>
      <point x="149" y="352" type="qcurve"/>
      <point x="195" y="314"/>
      <point x="215" y="232"/>
      <point x="215" y="189" type="qcurve" smooth="yes"/>
      <point x="215" y="76" type="line" smooth="yes"/>
      <point x="215" y="48"/>
      <point x="223" y="10"/>
      <point x="238" y="-14"/>
      <point x="256" y="-29"/>
      <point x="265" y="-34" type="qcurve"/>
      <point x="215" y="-117" type="line"/>
      <point x="213" y="-117"/>
      <point x="179" y="-101"/>
      <point x="137" y="-60"/>
      <point x="106" y="16"/>
      <point x="106" y="76" type="qcurve" smooth="yes"/>
      <point x="106" y="189" type="line" smooth="yes"/>
      <point x="106" y="231"/>
      <point x="83" y="308"/>
      <point x="36" y="345" type="qcurve" smooth="yes"/>
      <point x="26" y="352" type="line"/>
      <point x="36" y="360" type="line" smooth="yes"/>
      <point x="83" y="397"/>
      <point x="106" y="473"/>
      <point x="106" y="516" type="qcurve" smooth="yes"/>
      <point x="106" y="629" type="line" smooth="yes"/>
      <point x="106" y="689"/>
      <point x="138" y="765"/>
      <point x="180" y="805"/>
      <point x="213" y="821"/>
      <point x="215" y="821" type="qcurve"/>
      <point x="265" y="739" type="line"/>
      <point x="256" y="734"/>
      <point x="238" y="719"/>
      <point x="223" y="695"/>
      <point x="215" y="657"/>
      <point x="215" y="629" type="qcurve" smooth="yes"/>
    </contour>
  </outline>
</glyph>
<glyph name="exclamdown" format="1">
  <advance width="194"/>
  <unicode hex="00A1"/>
  <outline>
    <contour>
      <point x="155" y="68" type="line"/>
      <point x="155" y="0"/>
      <point x="95" y="0" type="qcurve" smooth="yes"/>
      <point x="67" y="0"/>
      <point x="39" y="35"/>
      <point x="39" y="69" type="qcurve"/>
      <point x="57" y="588" type="line"/>
      <point x="133" y="588" type="line"/>
    </contour>
    <contour>
      <point x="156" y="664" type="qcurve" smooth="yes"/>
      <point x="156" y="639"/>
      <point x="122" y="605"/>
      <point x="97" y="605" type="qcurve" smooth="yes"/>
      <point x="73" y="605"/>
      <point x="38" y="639"/>
      <point x="38" y="664" type="qcurve" smooth="yes"/>
      <point x="38" y="689"/>
      <point x="73" y="724"/>
      <point x="97" y="724" type="qcurve" smooth="yes"/>
      <point x="122" y="724"/>
      <point x="156" y="689"/>
    </contour>
  </outline>
</glyph>
<glyph name="currency" format="1">
  <advance width="497"/>
  <unicode hex="00A4"/>
  <outline>
    <contour>
      <point x="377" y="349" type="line"/>
      <point x="385" y="334"/>
      <point x="394" y="301"/>
      <point x="394" y="283" type="qcurve" smooth="yes"/>
      <point x="394" y="264"/>
      <point x="385" y="232"/>
      <point x="377" y="217" type="qcurve"/>
      <point x="464" y="131" type="line"/>
      <point x="400" y="68" type="line"/>
      <point x="313" y="153" type="line"/>
      <point x="299" y="146"/>
      <point x="265" y="137"/>
      <point x="248" y="137" type="qcurve" smooth="yes"/>
      <point x="230" y="137"/>
      <point x="197" y="147"/>
      <point x="182" y="154" type="qcurve"/>
      <point x="96" y="68" type="line"/>
      <point x="33" y="131" type="line"/>
      <point x="119" y="217" type="line"/>
      <point x="112" y="232"/>
      <point x="103" y="264"/>
      <point x="103" y="283" type="qcurve" smooth="yes"/>
      <point x="103" y="300"/>
      <point x="112" y="334"/>
      <point x="119" y="348" type="qcurve"/>
      <point x="33" y="435" type="line"/>
      <point x="96" y="498" type="line"/>
      <point x="182" y="411" type="line"/>
      <point x="213" y="428"/>
      <point x="248" y="428" type="qcurve" smooth="yes"/>
      <point x="266" y="428"/>
      <point x="299" y="419"/>
      <point x="314" y="411" type="qcurve"/>
      <point x="400" y="498" type="line"/>
      <point x="464" y="435" type="line"/>
    </contour>
    <contour>
      <point x="248" y="231" type="qcurve" smooth="yes"/>
      <point x="263" y="231"/>
      <point x="286" y="245"/>
      <point x="300" y="269"/>
      <point x="300" y="283" type="qcurve" smooth="yes"/>
      <point x="300" y="298"/>
      <point x="286" y="321"/>
      <point x="263" y="334"/>
      <point x="248" y="334" type="qcurve" smooth="yes"/>
      <point x="234" y="334"/>
      <point x="211" y="321"/>
      <point x="197" y="298"/>
      <point x="197" y="283" type="qcurve" smooth="yes"/>
      <point x="197" y="269"/>
      <point x="211" y="245"/>
      <point x="234" y="231"/>
    </contour>
  </outline>
</glyph>
<glyph name="copyright" format="1">
  <advance width="783"/>
  <unicode hex="00A9"/>
  <outline>
    <contour>
      <point x="750" y="185" type="line" smooth="yes"/>
      <point x="750" y="93"/>
      <point x="658" y="-30"/>
      <point x="496" y="-92"/>
      <point x="391" y="-94" type="qcurve"/>
      <point x="286" y="-92"/>
      <point x="124" y="-30"/>
      <point x="32" y="93"/>
      <point x="32" y="185" type="qcurve" smooth="yes"/>
      <point x="32" y="326" type="line" smooth="yes"/>
      <point x="32" y="418"/>
      <point x="124" y="541"/>
      <point x="286" y="603"/>
      <point x="391" y="603" type="qcurve" smooth="yes"/>
      <point x="496" y="603"/>
      <point x="658" y="541"/>
      <point x="750" y="418"/>
      <point x="750" y="326" type="qcurve" smooth="yes"/>
    </contour>
    <contour>
      <point x="648" y="289" type="line" smooth="yes"/>
      <point x="648" y="378"/>
      <point x="596" y="469"/>
      <point x="483" y="502"/>
      <point x="391" y="503" type="qcurve"/>
      <point x="300" y="502"/>
      <point x="186" y="469"/>
      <point x="134" y="378"/>
      <point x="134" y="289" type="qcurve" smooth="yes"/>
      <point x="134" y="222" type="line" smooth="yes"/>
      <point x="134" y="133"/>
      <point x="186" y="41"/>
      <point x="300" y="8"/>
      <point x="391" y="7" type="qcurve"/>
      <point x="483" y="8"/>
      <point x="596" y="41"/>
      <point x="648" y="133"/>
      <point x="648" y="222" type="qcurve" smooth="yes"/>
    </contour>
    <contour>
      <point x="518" y="331" type="line"/>
      <point x="518" y="331"/>
      <point x="490" y="341"/>
      <point x="446" y="350"/>
      <point x="422" y="350" type="qcurve" smooth="yes"/>
      <point x="396" y="350"/>
      <point x="358" y="338"/>
      <point x="345" y="327" type="qcurve" smooth="yes"/>
      <point x="333" y="315"/>
      <point x="320" y="277"/>
      <point x="320" y="255" type="qcurve" smooth="yes"/>
      <point x="320" y="232"/>
      <point x="333" y="193"/>
      <point x="344" y="182" type="qcurve" smooth="yes"/>
      <point x="357" y="171"/>
      <point x="390" y="163"/>
      <point x="408" y="163" type="qcurve" smooth="yes"/>
      <point x="432" y="163"/>
      <point x="483" y="173"/>
      <point x="527" y="185"/>
      <point x="554" y="195"/>
      <point x="554" y="195" type="qcurve"/>
      <point x="571" y="91" type="line"/>
      <point x="529" y="75"/>
      <point x="446" y="56"/>
      <point x="407" y="56" type="qcurve" smooth="yes"/>
      <point x="366" y="56"/>
      <point x="295" y="78"/>
      <point x="269" y="100" type="qcurve" smooth="yes"/>
      <point x="241" y="124"/>
      <point x="210" y="197"/>
      <point x="210" y="249" type="qcurve" smooth="yes"/>
      <point x="210" y="308"/>
      <point x="243" y="386"/>
      <point x="271" y="410" type="qcurve" smooth="yes"/>
      <point x="299" y="434"/>
      <point x="370" y="455"/>
      <point x="407" y="455" type="qcurve"/>
      <point x="444" y="454"/>
      <point x="516" y="436"/>
      <point x="546" y="421" type="qcurve"/>
    </contour>
  </outline>
</glyph>
<glyph name="acute" format="1">
  <advance width="266"/>
  <unicode hex="00B4"/>
  <outline>
    <contour>
      <point x="207" y="671" type="qcurve" smooth="yes"/>
      <point x="149" y="596" type="line"/>
      <point x="105" y="596" type="line"/>
      <point x="135" y="712" type="line" smooth="yes"/>
      <point x="140" y="732"/>
      <point x="181" y="753"/>
      <point x="200" y="741" type="qcurve"/>
      <point x="219" y="731"/>
      <point x="221" y="688"/>
    </contour>
  </outline>
</glyph>
<glyph name="eth" format="1">
  <advance width="423"/>
  <unicode hex="00F0"/>
  <outline>
    <contour>
      <point x="160" y="630" type="qcurve"/>
      <point x="187" y="699" type="line"/>
      <point x="279" y="677"/>
      <point x="395" y="569"/>
      <point x="395" y="479" type="qcurve" smooth="yes"/>
      <point x="395" y="186" type="line" smooth="yes"/>
      <point x="395" y="91"/>
      <point x="298" y="-9"/>
      <point x="207" y="-9" type="qcurve" smooth="yes"/>
      <point x="121" y="-9"/>
      <point x="26" y="95"/>
      <point x="26" y="186" type="qcurve" smooth="yes"/>
      <point x="26" y="245" type="line" smooth="yes"/>
      <point x="26" y="337"/>
      <point x="112" y="432"/>
      <point x="195" y="432" type="qcurve" smooth="yes"/>
      <point x="212" y="432"/>
      <point x="244" y="426"/>
      <point x="274" y="416"/>
      <point x="285" y="408" type="qcurve"/>
      <point x="285" y="479" type="line" smooth="yes"/>
      <point x="285" y="522"/>
      <point x="247" y="580"/>
      <point x="198" y="615"/>
    </contour>
    <contour>
      <point x="136" y="260" type="qcurve" smooth="yes"/>
      <point x="136" y="180" type="line" smooth="yes"/>
      <point x="136" y="144"/>
      <point x="175" y="101"/>
      <point x="211" y="101" type="qcurve" smooth="yes"/>
      <point x="246" y="101"/>
      <point x="285" y="143"/>
      <point x="285" y="180" type="qcurve" smooth="yes"/>
      <point x="285" y="281" type="line" smooth="yes"/>
      <point x="285" y="300"/>
      <point x="257" y="322"/>
      <point x="218" y="333"/>
      <point x="201" y="333" type="qcurve" smooth="yes"/>
      <point x="169" y="333"/>
      <point x="136" y="294"/>
    </contour>
    <contour>
      <point x="384" y="658" type="line"/>
      <point x="206" y="479" type="line"/>
      <point x="155" y="530" type="line"/>
      <point x="334" y="709" type="line"/>
    </contour>
  </outline>
</glyph>
<glyph name="divide" format="1">
  <advance width="380"/>
  <unicode hex="00F7"/>
  <outline>
    <contour>
      <point x="29" y="340" type="line"/>
      <point x="29" y="426" type="line"/>
      <point x="349" y="426" type="line"/>
      <point x="349" y="340" type="line"/>
    </contour>
    <contour>
      <point x="190" y="571" type="qcurve" smooth="yes"/>
      <point x="214" y="571"/>
      <point x="250" y="535"/>
      <point x="250" y="512" type="qcurve" smooth="yes"/>
      <point x="250" y="487"/>
      <point x="214" y="452"/>
      <point x="190" y="452" type="qcurve" smooth="yes"/>
      <point x="165" y="452"/>
      <point x="130" y="487"/>
      <point x="130" y="512" type="qcurve" smooth="yes"/>
      <point x="130" y="535"/>
      <point x="165" y="571"/>
    </contour>
    <contour>
      <point x="190" y="313" type="qcurve" smooth="yes"/>
      <point x="214" y="313"/>
      <point x="250" y="280"/>
      <point x="250" y="255" type="qcurve" smooth="yes"/>
      <point x="250" y="230"/>
      <point x="214" y="195"/>
      <point x="190" y="195" type="qcurve" smooth="yes"/>
      <point x="165" y="195"/>
      <point x="130" y="230"/>
      <point x="130" y="255" type="qcurve" smooth="yes"/>
      <point x="130" y="280"/>
      <point x="165" y="313"/>
    </contour>
  </outline>
</glyph>
<glyph name="oslash" format="1">
  <advance width="432"/>
  <unicode hex="00F8"/>
  <outline>
    <contour>
      <point x="378" y="512" type="line"/>
      <point x="143" y="-20" type="line"/>
      <point x="58" y="-20" type="line"/>
      <point x="290" y="512" type="line"/>
    </contour>
    <component base="o"/>
  </outline>
</glyph>
<glyph name="oe" format="1">
  <advance width="687"/>
  <unicode hex="0153"/>
  <outline>
    <contour>
      <point x="405" y="148" type="line" smooth="yes"/>
      <point x="405" y="134"/>
      <point x="413" y="114"/>
      <point x="420" y="106" type="qcurve" smooth="yes"/>
      <point x="427" y="98"/>
      <point x="449" y="90"/>
      <point x="465" y="90" type="qcurve" smooth="yes"/>
      <point x="491" y="90"/>
      <point x="559" y="114"/>
      <point x="590" y="130" type="qcurve"/>
      <point x="630" y="35" type="line"/>
      <point x="594" y="13"/>
      <point x="504" y="-13"/>
      <point x="460" y="-13" type="qcurve" smooth="yes"/>
      <point x="438" y="-13"/>
      <point x="396" y="-6"/>
      <point x="360" y="9"/>
      <point x="345" y="20" type="qcurve" smooth="yes"/>
      <point x="343" y="22"/>
      <point x="340" y="24"/>
      <point x="338" y="25" type="qcurve"/>
      <point x="316" y="7"/>
      <point x="256" y="-12"/>
      <point x="218" y="-12" type="qcurve" smooth="yes"/>
      <point x="153" y="-12"/>
      <point x="70" y="43"/>
      <point x="31" y="132"/>
      <point x="31" y="182" type="qcurve" smooth="yes"/>
      <point x="31" y="313" type="line" smooth="yes"/>
      <point x="31" y="409"/>
      <point x="128" y="509"/>
      <point x="218" y="509" type="qcurve" smooth="yes"/>
      <point x="259" y="509"/>
      <point x="323" y="486"/>
      <point x="346" y="464" type="qcurve"/>
      <point x="348" y="466"/>
      <point x="351" y="470"/>
      <point x="353" y="471" type="qcurve" smooth="yes"/>
      <point x="400" y="509"/>
      <point x="479" y="509" type="qcurve" smooth="yes"/>
      <point x="550" y="509"/>
      <point x="593" y="477" type="qcurve" smooth="yes"/>
      <point x="623" y="456"/>
      <point x="655" y="387"/>
      <point x="655" y="342" type="qcurve" smooth="yes"/>
      <point x="655" y="186" type="line"/>
      <point x="405" y="173" type="line"/>
    </contour>
    <contour>
      <point x="289" y="320" type="line" smooth="yes"/>
      <point x="289" y="355"/>
      <point x="252" y="399"/>
      <point x="218" y="399" type="qcurve" smooth="yes"/>
      <point x="181" y="399"/>
      <point x="142" y="358"/>
      <point x="142" y="320" type="qcurve" smooth="yes"/>
      <point x="142" y="174" type="line" smooth="yes"/>
      <point x="142" y="154"/>
      <point x="158" y="118"/>
      <point x="191" y="96"/>
      <point x="218" y="96" type="qcurve" smooth="yes"/>
      <point x="243" y="96"/>
      <point x="274" y="116"/>
      <point x="289" y="152"/>
      <point x="289" y="174" type="qcurve" smooth="yes"/>
    </contour>
    <contour>
      <point x="544" y="312" type="line" smooth="yes"/>
      <point x="544" y="339"/>
      <point x="537" y="375"/>
      <point x="523" y="388" type="qcurve" smooth="yes"/>
      <point x="516" y="395"/>
      <point x="494" y="404"/>
      <point x="478" y="404" type="qcurve"/>
      <point x="458" y="403"/>
      <point x="434" y="393"/>
      <point x="426" y="385" type="qcurve" smooth="yes"/>
      <point x="411" y="372"/>
      <point x="405" y="337"/>
      <point x="405" y="313" type="qcurve" smooth="yes"/>
      <point x="405" y="274" type="line"/>
      <point x="544" y="283" type="line"/>
    </contour>
  </outline>
</glyph>
<glyph name="Tbar" format="1">
  <advance width="470"/>
  <unicode hex="0166"/>
  <outline>
    <contour>
      <point x="32" y="413" type="line"/>
      <point x="433" y="413" type="line"/>
      <point x="433" y="323" type="line"/>
      <point x="32" y="323" type="line"/>
    </contour>
    <contour>
      <point x="285" y="587" type="line"/>
      <point x="285" y="0" type="line"/>
      <point x="175" y="0" type="line"/>
      <point x="175" y="587" type="line"/>
      <point x="30" y="587" type="line"/>
      <point x="30" y="698" type="line"/>
      <point x="433" y="698" type="line"/>
      <point x="433" y="587" type="line"/>
    </contour>
  </outline>
</glyph>
<glyph name="caron" format="1">
  <advance width="266"/>
  <unicode hex="02C7"/>
  <outline>
    <contour>
      <point x="263" y="716" type="line"/>
      <point x="131" y="588" type="line"/>
      <point x="3" y="715" type="line"/>
      <point x="56" y="767" type="line"/>
      <point x="131" y="686" type="line"/>
      <point x="211" y="768" type="line"/>
    </contour>
  </outline>
</glyph>
<glyph name="breve" format="1">
  <advance width="266"/>
  <unicode hex="02D8"/>
  <outline>
    <contour>
      <point x="246" y="705" type="line"/>
      <point x="246" y="698" type="line" smooth="yes"/>
      <point x="246" y="667"/>
      <point x="215" y="616"/>
      <point x="164" y="585"/>
      <point x="133" y="585" type="qcurve" smooth="yes"/>
      <point x="102" y="585"/>
      <point x="50" y="616"/>
      <point x="19" y="667"/>
      <point x="19" y="698" type="qcurve" smooth="yes"/>
      <point x="19" y="705" type="line"/>
      <point x="99" y="705" type="line"/>
      <point x="99" y="698" type="line" smooth="yes"/>
      <point x="99" y="685"/>
      <point x="119" y="664"/>
      <point x="133" y="664" type="qcurve" smooth="yes"/>
      <point x="147" y="664"/>
      <point x="167" y="685"/>
      <point x="167" y="698" type="qcurve" smooth="yes"/>
      <point x="167" y="705" type="line"/>
    </contour>
  </outline>
</glyph>
<glyph name="ring" format="1">
  <advance width="266"/>
  <unicode hex="02DA"/>
  <outline>
    <contour>
      <point x="133" y="774" type="qcurve" smooth="yes"/>
      <point x="165" y="774"/>
      <point x="216" y="744"/>
      <point x="247" y="693"/>
      <point x="247" y="661" type="qcurve" smooth="yes"/>
      <point x="247" y="630"/>
      <point x="216" y="578"/>
      <point x="165" y="547"/>
      <point x="133" y="547" type="qcurve" smooth="yes"/>
      <point x="102" y="547"/>
      <point x="50" y="578"/>
      <point x="19" y="630"/>
      <point x="19" y="661" type="qcurve" smooth="yes"/>
      <point x="19" y="693"/>
      <point x="50" y="744"/>
      <point x="102" y="774"/>
    </contour>
    <contour>
      <point x="133" y="692" type="qcurve" smooth="yes"/>
      <point x="121" y="692"/>
      <point x="102" y="674"/>
      <point x="102" y="661" type="qcurve" smooth="yes"/>
      <point x="102" y="647"/>
      <point x="121" y="629"/>
      <point x="133" y="629" type="qcurve" smooth="yes"/>
      <point x="146" y="629"/>
      <point x="164" y="647"/>
      <point x="164" y="661" type="qcurve" smooth="yes"/>
      <point x="164" y="674"/>
      <point x="146" y="692"/>
    </contour>
  </outline>
</glyph>
<glyph name="dieresistonos" format="1">
  <advance width="266"/>
  <unicode hex="0385"/>
  <outline>
    <contour>
      <point x="113" y="693" type="qcurve" smooth="yes"/>
      <point x="113" y="668"/>
      <point x="79" y="634"/>
      <point x="54" y="634" type="qcurve" smooth="yes"/>
      <point x="29" y="634"/>
      <point x="-6" y="668"/>
      <point x="-6" y="693" type="qcurve" smooth="yes"/>
      <point x="-6" y="718"/>
      <point x="29" y="752"/>
      <point x="54" y="752" type="qcurve" smooth="yes"/>
      <point x="79" y="752"/>
      <point x="113" y="718"/>
    </contour>
    <contour>
      <point x="272" y="693" type="qcurve" smooth="yes"/>
      <point x="272" y="668"/>
      <point x="237" y="634"/>
      <point x="212" y="634" type="qcurve" smooth="yes"/>
      <point x="187" y="634"/>
      <point x="152" y="668"/>
      <point x="152" y="693" type="qcurve" smooth="yes"/>
      <point x="152" y="718"/>
      <point x="187" y="752"/>
      <point x="212" y="752" type="qcurve" smooth="yes"/>
      <point x="237" y="752"/>
      <point x="272" y="718"/>
    </contour>
    <contour>
      <point x="211" y="807" type="qcurve" smooth="yes"/>
      <point x="152" y="733" type="line"/>
      <point x="108" y="733" type="line"/>
      <point x="139" y="849" type="line"/>
      <point x="146" y="870"/>
      <point x="183" y="889"/>
      <point x="204" y="880" type="qcurve"/>
      <point x="224" y="869"/>
      <point x="225" y="824"/>
    </contour>
  </outline>
</glyph>
<glyph name="Deltagreek" format="1">
  <advance width="549"/>
  <unicode hex="0394"/>
  <outline>
    <contour>
      <point x="528" y="0" type="line"/>
      <point x="23" y="0" type="line"/>
      <point x="213" y="698" type="line"/>
      <point x="323" y="698" type="line"/>
    </contour>
    <contour>
      <point x="171" y="100" type="line"/>
      <point x="378" y="100" type="line"/>
      <point x="273" y="480" type="line"/>
    </contour>
  </outline>
</glyph>
<glyph name="Theta" format="1">
  <advance width="493"/>
  <unicode hex="0398"/>
  <outline>
    <contour>
      <point x="36" y="506" type="line" smooth="yes"/>
      <point x="36" y="608"/>
      <point x="149" y="715"/>
      <point x="248" y="715" type="qcurve" smooth="yes"/>
      <point x="347" y="715"/>
      <point x="456" y="603"/>
      <point x="456" y="505" type="qcurve" smooth="yes"/>
      <point x="456" y="185" type="line" smooth="yes"/>
      <point x="456" y="124"/>
      <point x="404" y="36"/>
      <point x="310" y="-11"/>
      <point x="247" y="-11" type="qcurve" smooth="yes"/>
      <point x="188" y="-11"/>
      <point x="92" y="33"/>
      <point x="36" y="121"/>
      <point x="36" y="185" type="qcurve" smooth="yes"/>
    </contour>
    <contour>
      <point x="346" y="469" type="line" smooth="yes"/>
      <point x="346" y="533"/>
      <point x="307" y="596"/>
      <point x="246" y="596" type="qcurve" smooth="yes"/>
      <point x="185" y="596"/>
      <point x="146" y="535"/>
      <point x="146" y="470" type="qcurve" smooth="yes"/>
      <point x="146" y="400" type="line"/>
      <point x="346" y="400" type="line"/>
    </contour>
    <contour>
      <point x="246" y="101" type="qcurve" smooth="yes"/>
      <point x="277" y="101"/>
      <point x="322" y="127"/>
      <point x="346" y="175"/>
      <point x="346" y="206" type="qcurve" smooth="yes"/>
      <point x="346" y="302" type="line"/>
      <point x="146" y="302" type="line"/>
      <point x="146" y="204" type="line" smooth="yes"/>
      <point x="146" y="172"/>
      <point x="167" y="126"/>
      <point x="212" y="101"/>
    </contour>
  </outline>
</glyph>
<glyph name="Upsilon" format="1">
  <advance width="518"/>
  <unicode hex="03A5"/>
  <outline>
    <contour>
      <point x="477" y="156" type="line" smooth="yes"/>
      <point x="477" y="77"/>
      <point x="408" y="-11"/>
      <point x="326" y="-19" type="qcurve"/>
      <point x="291" y="65" type="line"/>
      <point x="313" y="68"/>
      <point x="347" y="87"/>
      <point x="367" y="129"/>
      <point x="367" y="164" type="qcurve" smooth="yes"/>
      <point x="367" y="237" type="line"/>
      <point x="367" y="237"/>
      <point x="339" y="219"/>
      <point x="289" y="200"/>
      <point x="255" y="198" type="qcurve"/>
      <point x="211" y="198"/>
      <point x="130" y="221"/>
      <point x="95" y="254" type="qcurve" smooth="yes"/>
      <point x="64" y="283"/>
      <point x="32" y="362"/>
      <point x="32" y="413" type="qcurve" smooth="yes"/>
      <point x="32" y="698" type="line"/>
      <point x="142" y="698" type="line"/>
      <point x="142" y="422" type="line" smooth="yes"/>
      <point x="142" y="391"/>
      <point x="159" y="343"/>
      <point x="176" y="327" type="qcurve" smooth="yes"/>
      <point x="190" y="314"/>
      <point x="235" y="300"/>
      <point x="262" y="300" type="qcurve" smooth="yes"/>
      <point x="303" y="300"/>
      <point x="334" y="328" type="qcurve" smooth="yes"/>
      <point x="348" y="342"/>
      <point x="367" y="383"/>
      <point x="367" y="405" type="qcurve" smooth="yes"/>
      <point x="367" y="698" type="line"/>
      <point x="477" y="698" type="line"/>
    </contour>
  </outline>
</glyph>
<glyph name="Phi" format="1">
  <advance width="597"/>
  <unicode hex="03A6"/>
  <outline>
    <contour>
      <point x="209" y="620" type="line"/>
      <point x="196" y="615"/>
      <point x="166" y="596"/>
      <point x="146" y="555"/>
      <point x="146" y="516" type="qcurve" smooth="yes"/>
      <point x="146" y="198" type="line" smooth="yes"/>
      <point x="146" y="176"/>
      <point x="157" y="130"/>
      <point x="191" y="100"/>
      <point x="224" y="100" type="qcurve" smooth="yes"/>
      <point x="241" y="100" type="line"/>
      <point x="241" y="604" type="line" smooth="yes"/>
      <point x="241" y="616"/>
      <point x="249" y="652"/>
      <point x="276" y="686"/>
      <point x="330" y="710"/>
      <point x="376" y="710" type="qcurve" smooth="yes"/>
      <point x="432" y="710"/>
      <point x="515" y="661"/>
      <point x="561" y="571"/>
      <point x="561" y="510" type="qcurve" smooth="yes"/>
      <point x="561" y="226" type="line" smooth="yes"/>
      <point x="561" y="160"/>
      <point x="526" y="65"/>
      <point x="445" y="13"/>
      <point x="374" y="13" type="qcurve" smooth="yes"/>
      <point x="351" y="13" type="line"/>
      <point x="351" y="-35" type="line"/>
      <point x="241" y="-22" type="line"/>
      <point x="241" y="13" type="line"/>
      <point x="224" y="13" type="line" smooth="yes"/>
      <point x="147" y="13"/>
      <point x="66" y="70"/>
      <point x="36" y="167"/>
      <point x="36" y="226" type="qcurve" smooth="yes"/>
      <point x="36" y="516" type="line" smooth="yes"/>
      <point x="36" y="667"/>
      <point x="152" y="705" type="qcurve"/>
    </contour>
    <contour>
      <point x="374" y="100" type="line" smooth="yes"/>
      <point x="406" y="100"/>
      <point x="439" y="131"/>
      <point x="451" y="177"/>
      <point x="451" y="198" type="qcurve" smooth="yes"/>
      <point x="451" y="453" type="line" smooth="yes"/>
      <point x="451" y="490"/>
      <point x="446" y="556"/>
      <point x="420" y="599"/>
      <point x="389" y="599" type="qcurve" smooth="yes"/>
      <point x="370" y="599"/>
      <point x="354" y="581"/>
      <point x="351" y="555"/>
      <point x="351" y="543" type="qcurve" smooth="yes"/>
      <point x="351" y="100" type="line"/>
    </contour>
  </outline>
</glyph>
<glyph name="Psi" format="1">
  <advance width="592"/>
  <unicode hex="03A8"/>
  <outline>
    <contour>
      <point x="141" y="431" type="line" smooth="yes"/>
      <point x="141" y="363"/>
      <point x="173" y="306"/>
      <point x="220" y="306" type="qcurve" smooth="yes"/>
      <point x="238" y="306" type="line"/>
      <point x="238" y="698" type="line"/>
      <point x="348" y="698" type="line"/>
      <point x="348" y="306" type="line"/>
      <point x="371" y="306" type="line" smooth="yes"/>
      <point x="416" y="306"/>
      <point x="451" y="363"/>
      <point x="451" y="433" type="qcurve" smooth="yes"/>
      <point x="451" y="563" type="line" smooth="yes"/>
      <point x="451" y="599"/>
      <point x="429" y="643"/>
      <point x="406" y="664"/>
      <point x="404" y="665" type="qcurve"/>
      <point x="503" y="708" type="line"/>
      <point x="513" y="703"/>
      <point x="538" y="666"/>
      <point x="558" y="599"/>
      <point x="558" y="548" type="qcurve" smooth="yes"/>
      <point x="558" y="406" type="line" smooth="yes"/>
      <point x="558" y="315"/>
      <point x="467" y="213"/>
      <point x="371" y="213" type="qcurve" smooth="yes"/>
      <point x="348" y="213" type="line"/>
      <point x="348" y="0" type="line"/>
      <point x="238" y="0" type="line"/>
      <point x="238" y="213" type="line"/>
      <point x="220" y="213" type="line" smooth="yes"/>
      <point x="126" y="213"/>
      <point x="32" y="315"/>
      <point x="32" y="406" type="qcurve" smooth="yes"/>
      <point x="32" y="698" type="line"/>
      <point x="141" y="698" type="line"/>
    </contour>
  </outline>
</glyph>
<glyph name="alpha" format="1">
  <advance width="442"/>
  <unicode hex="03B1"/>
    <anchor name="tonos" x="221" y="545"/>
  <outline>
    <contour>
      <point x="405" y="485" type="line"/>
      <point x="402" y="454"/>
      <point x="399" y="405"/>
      <point x="399" y="389" type="qcurve" smooth="yes"/>
      <point x="399" y="5" type="line"/>
      <point x="399" y="5"/>
      <point x="358" y="2"/>
      <point x="295" y="-1"/>
      <point x="225" y="-4"/>
      <point x="196" y="-4" type="qcurve" smooth="yes"/>
      <point x="150" y="-4"/>
      <point x="87" y="24"/>
      <point x="50" y="72"/>
      <point x="33" y="134"/>
      <point x="33" y="169" type="qcurve" smooth="yes"/>
      <point x="33" y="354" type="line"/>
      <point x="34" y="412"/>
      <point x="72" y="478"/>
      <point x="136" y="506"/>
      <point x="175" y="506" type="qcurve" smooth="yes"/>
      <point x="221" y="506"/>
      <point x="285" y="490"/>
      <point x="297" y="485" type="qcurve"/>
      <point x="297" y="485"/>
      <point x="302" y="502"/>
      <point x="306" y="510" type="qcurve"/>
    </contour>
    <contour>
      <point x="143" y="168" type="line" smooth="yes"/>
      <point x="143" y="119"/>
      <point x="179" y="88"/>
      <point x="215" y="88" type="qcurve" smooth="yes"/>
      <point x="223" y="88"/>
      <point x="241" y="88"/>
      <point x="259" y="89"/>
      <point x="277" y="90"/>
      <point x="287" y="91" type="qcurve"/>
      <point x="287" y="386" type="line"/>
      <point x="271" y="394"/>
      <point x="220" y="405"/>
      <point x="203" y="406" type="qcurve"/>
      <point x="193" y="406"/>
      <point x="164" y="400"/>
      <point x="143" y="377"/>
      <point x="143" y="351" type="qcurve" smooth="yes"/>
    </contour>
    <contour>
      <point x="221" y="545" type="move" name="tonos"/>
    </contour>
  </outline>
</glyph>
<glyph name="delta" format="1">
  <advance width="436"/>
  <unicode hex="03B4"/>
  <outline>
    <contour>
      <point x="211" y="588" type="line" smooth="yes"/>
      <point x="207" y="588"/>
      <point x="197" y="584"/>
      <point x="190" y="575"/>
      <point x="190" y="569" type="qcurve" smooth="yes"/>
      <point x="190" y="566"/>
      <point x="192" y="561"/>
      <point x="196" y="556"/>
      <point x="199" y="553" type="qcurve" smooth="yes"/>
      <point x="202" y="551"/>
      <point x="240" y="521"/>
      <point x="288" y="484"/>
      <point x="306" y="468" type="qcurve" smooth="yes"/>
      <point x="329" y="449"/>
      <point x="367" y="412"/>
      <point x="376" y="397" type="qcurve" smooth="yes"/>
      <point x="390" y="374"/>
      <point x="403" y="315"/>
      <point x="403" y="280" type="qcurve" smooth="yes"/>
      <point x="403" y="183" type="line" smooth="yes"/>
      <point x="403" y="89"/>
      <point x="311" y="-11"/>
      <point x="217" y="-11" type="qcurve" smooth="yes"/>
      <point x="124" y="-11"/>
      <point x="30" y="90"/>
      <point x="30" y="183" type="qcurve" smooth="yes"/>
      <point x="30" y="280" type="line" smooth="yes"/>
      <point x="30" y="315"/>
      <point x="45" y="374"/>
      <point x="60" y="397" type="qcurve" smooth="yes"/>
      <point x="69" y="411"/>
      <point x="96" y="434"/>
      <point x="130" y="453"/>
      <point x="148" y="460" type="qcurve"/>
      <point x="127" y="477" type="line"/>
      <point x="105" y="500"/>
      <point x="84" y="548"/>
      <point x="84" y="573" type="qcurve" smooth="yes"/>
      <point x="84" y="618"/>
      <point x="133" y="674"/>
      <point x="209" y="700"/>
      <point x="251" y="700" type="qcurve" smooth="yes"/>
      <point x="368" y="700" type="line"/>
      <point x="347" y="588" type="line"/>
    </contour>
    <contour>
      <point x="290" y="289" type="line" smooth="yes"/>
      <point x="290" y="297"/>
      <point x="286" y="328"/>
      <point x="267" y="367"/>
      <point x="243" y="387" type="qcurve" smooth="yes"/>
      <point x="240" y="389"/>
      <point x="236" y="393"/>
      <point x="234" y="395" type="qcurve"/>
      <point x="224" y="393"/>
      <point x="199" y="385"/>
      <point x="174" y="369"/>
      <point x="164" y="356" type="qcurve" smooth="yes"/>
      <point x="155" y="344"/>
      <point x="144" y="310"/>
      <point x="144" y="287" type="qcurve" smooth="yes"/>
      <point x="144" y="175" type="line" smooth="yes"/>
      <point x="144" y="155"/>
      <point x="158" y="119"/>
      <point x="190" y="97"/>
      <point x="216" y="97" type="qcurve" smooth="yes"/>
      <point x="243" y="97"/>
      <point x="275" y="119"/>
      <point x="290" y="155"/>
      <point x="290" y="175" type="qcurve" smooth="yes"/>
    </contour>
  </outline>
</glyph>
<glyph name="zeta" format="1">
  <advance width="438"/>
  <unicode hex="03B6"/>
  <outline>
    <contour>
      <point x="415" y="598" type="line"/>
      <point x="393" y="582"/>
      <point x="348" y="541"/>
      <point x="305" y="494"/>
      <point x="284" y="469" type="qcurve" smooth="yes"/>
      <point x="261" y="440"/>
      <point x="217" y="379"/>
      <point x="200" y="349" type="qcurve" smooth="yes"/>
      <point x="175" y="305"/>
      <point x="145" y="223"/>
      <point x="145" y="190" type="qcurve" smooth="yes"/>
      <point x="145" y="171"/>
      <point x="159" y="135"/>
      <point x="178" y="122" type="qcurve" smooth="yes"/>
      <point x="201" y="106"/>
      <point x="262" y="101"/>
      <point x="328" y="113"/>
      <point x="357" y="120" type="qcurve"/>
      <point x="357" y="-209" type="line"/>
      <point x="247" y="-183" type="line"/>
      <point x="247" y="0" type="line"/>
      <point x="204" y="-6"/>
      <point x="112" y="16"/>
      <point x="79" y="50" type="qcurve" smooth="yes"/>
      <point x="54" y="74"/>
      <point x="28" y="142"/>
      <point x="28" y="184" type="qcurve" smooth="yes"/>
      <point x="28" y="230"/>
      <point x="60" y="337"/>
      <point x="94" y="395" type="qcurve" smooth="yes"/>
      <point x="112" y="426"/>
      <point x="158" y="490"/>
      <point x="186" y="521" type="qcurve" smooth="yes"/>
      <point x="193" y="529"/>
      <point x="204" y="541"/>
      <point x="225" y="565"/>
      <point x="247" y="588" type="qcurve"/>
      <point x="97" y="588" type="line"/>
      <point x="97" y="698" type="line"/>
      <point x="368" y="698" type="line"/>
    </contour>
  </outline>
</glyph>
<glyph name="xi" format="1">
  <advance width="437"/>
  <unicode hex="03BE"/>
  <outline>
    <contour>
      <point x="371" y="586" type="line"/>
      <point x="371" y="586"/>
      <point x="339" y="586"/>
      <point x="294" y="586"/>
      <point x="253" y="586"/>
      <point x="244" y="586" type="qcurve" smooth="yes"/>
      <point x="225" y="586"/>
      <point x="200" y="565"/>
      <point x="200" y="543" type="qcurve" smooth="yes"/>
      <point x="200" y="513"/>
      <point x="224" y="472"/>
      <point x="258" y="445"/>
      <point x="272" y="435" type="qcurve" smooth="yes"/>
      <point x="289" y="423"/>
      <point x="333" y="403"/>
      <point x="365" y="392"/>
      <point x="365" y="392" type="qcurve"/>
      <point x="343" y="301" type="line"/>
      <point x="309" y="303"/>
      <point x="229" y="307"/>
      <point x="196" y="307" type="qcurve" smooth="yes"/>
      <point x="181" y="307"/>
      <point x="156" y="298"/>
      <point x="141" y="276"/>
      <point x="141" y="257" type="qcurve" smooth="yes"/>
      <point x="141" y="174" type="line" smooth="yes"/>
      <point x="141" y="155"/>
      <point x="148" y="125"/>
      <point x="166" y="103"/>
      <point x="202" y="91"/>
      <point x="230" y="91" type="qcurve" smooth="yes"/>
      <point x="252" y="91"/>
      <point x="291" y="92"/>
      <point x="331" y="95"/>
      <point x="375" y="99"/>
      <point x="401" y="102" type="qcurve"/>
      <point x="401" y="-212" type="line"/>
      <point x="288" y="-198" type="line"/>
      <point x="288" y="-7" type="line"/>
      <point x="279" y="-8"/>
      <point x="260" y="-9"/>
      <point x="238" y="-10"/>
      <point x="223" y="-10" type="qcurve" smooth="yes"/>
      <point x="168" y="-10"/>
      <point x="80" y="20"/>
      <point x="30" y="92"/>
      <point x="30" y="155" type="qcurve" smooth="yes"/>
      <point x="30" y="255" type="line" smooth="yes"/>
      <point x="30" y="293"/>
      <point x="48" y="349"/>
      <point x="80" y="386"/>
      <point x="126" y="404"/>
      <point x="153" y="404" type="qcurve" smooth="yes"/>
      <point x="159" y="404"/>
      <point x="178" y="404"/>
      <point x="179" y="404" type="qcurve"/>
      <point x="143" y="425"/>
      <point x="106" y="475"/>
      <point x="92" y="525"/>
      <point x="91" y="544" type="qcurve"/>
      <point x="91" y="585"/>
      <point x="122" y="656"/>
      <point x="186" y="700"/>
      <point x="234" y="700" type="qcurve" smooth="yes"/>
      <point x="273" y="700"/>
      <point x="346" y="700"/>
      <point x="393" y="700"/>
      <point x="393" y="700" type="qcurve"/>
    </contour>
  </outline>
</glyph>
<glyph name="pi" format="1">
  <advance width="475"/>
  <unicode hex="03C0"/>
  <outline>
    <contour>
      <point x="415" y="105" type="line"/>
      <point x="417" y="90"/>
      <point x="433" y="69"/>
      <point x="445" y="62" type="qcurve"/>
      <point x="380" y="-17" type="line"/>
      <point x="380" y="-17"/>
      <point x="358" y="-7"/>
      <point x="328" y="15"/>
      <point x="306" y="54"/>
      <point x="306" y="84" type="qcurve"/>
      <point x="307" y="396" type="line"/>
      <point x="149" y="396" type="line"/>
      <point x="149" y="0" type="line"/>
      <point x="39" y="0" type="line"/>
      <point x="39" y="499" type="line"/>
      <point x="415" y="499" type="line"/>
    </contour>
  </outline>
</glyph>
<glyph name="sigma1" format="1">
  <advance width="351"/>
  <unicode hex="03C2"/>
  <outline>
    <contour>
      <point x="138" y="218" type="line" smooth="yes"/>
      <point x="138" y="195"/>
      <point x="168" y="161"/>
      <point x="185" y="145" type="qcurve" smooth="yes"/>
      <point x="191" y="139"/>
      <point x="221" y="111"/>
      <point x="226" y="106" type="qcurve" smooth="yes"/>
      <point x="242" y="91"/>
      <point x="270" y="54"/>
      <point x="289" y="9"/>
      <point x="289" y="-21" type="qcurve" smooth="yes"/>
      <point x="289" y="-46"/>
      <point x="270" y="-91"/>
      <point x="240" y="-130"/>
      <point x="222" y="-147" type="qcurve"/>
      <point x="154" y="-83" type="line"/>
      <point x="162" y="-76"/>
      <point x="176" y="-59"/>
      <point x="186" y="-38"/>
      <point x="186" y="-26" type="qcurve" smooth="yes"/>
      <point x="186" y="-6"/>
      <point x="162" y="28"/>
      <point x="145" y="43" type="qcurve" smooth="yes"/>
      <point x="141" y="47"/>
      <point x="110" y="74"/>
      <point x="99" y="84" type="qcurve" smooth="yes"/>
      <point x="74" y="107"/>
      <point x="28" y="174"/>
      <point x="28" y="222" type="qcurve"/>
      <point x="28" y="222"/>
      <point x="28" y="252"/>
      <point x="28" y="297"/>
      <point x="28" y="343"/>
      <point x="28" y="376"/>
      <point x="28" y="378" type="qcurve"/>
      <point x="30" y="409"/>
      <point x="66" y="467"/>
      <point x="143" y="505"/>
      <point x="204" y="505" type="qcurve" smooth="yes"/>
      <point x="225" y="505"/>
      <point x="266" y="497"/>
      <point x="306" y="481"/>
      <point x="323" y="469" type="qcurve"/>
      <point x="286" y="378" type="line"/>
      <point x="275" y="384"/>
      <point x="249" y="393"/>
      <point x="219" y="398"/>
      <point x="202" y="398" type="qcurve" smooth="yes"/>
      <point x="174" y="398"/>
      <point x="147" y="386"/>
      <point x="138" y="370"/>
      <point x="138" y="363" type="qcurve" smooth="yes"/>
    </contour>
  </outline>
</glyph>
<glyph name="tau" format="1">
  <advance width="359"/>
  <unicode hex="03C4"/>
  <outline>
    <contour>
      <point x="228" y="147" type="line" smooth="yes"/>
      <point x="228" y="122"/>
      <point x="240" y="87"/>
      <point x="268" y="64"/>
      <point x="291" y="56" type="qcurve"/>
      <point x="244" y="-20" type="line"/>
      <point x="184" y="-5"/>
      <point x="118" y="74"/>
      <point x="118" y="132" type="qcurve" smooth="yes"/>
      <point x="118" y="396" type="line"/>
      <point x="25" y="396" type="line"/>
      <point x="25" y="499" type="line"/>
      <point x="328" y="499" type="line"/>
      <point x="328" y="396" type="line"/>
      <point x="228" y="396" type="line"/>
    </contour>
  </outline>
</glyph>
<glyph name="upsilon" format="1">
  <advance width="443"/>
  <unicode hex="03C5"/>
    <anchor name="tonos" x="221" y="545"/>
    <anchor name="top" x="221" y="545"/>
  <outline>
    <contour>
      <point x="406" y="184" type="line" smooth="yes"/>
      <point x="406" y="99"/>
      <point x="318" y="-10"/>
      <point x="225" y="-10" type="qcurve" smooth="yes"/>
      <point x="159" y="-10"/>
      <point x="75" y="45"/>
      <point x="36" y="133"/>
      <point x="36" y="184" type="qcurve" smooth="yes"/>
      <point x="36" y="499" type="line"/>
      <point x="150" y="499" type="line"/>
      <point x="150" y="176" type="line" smooth="yes"/>
      <point x="150" y="156"/>
      <point x="166" y="120"/>
      <point x="200" y="98"/>
      <point x="226" y="98" type="qcurve" smooth="yes"/>
      <point x="251" y="98"/>
      <point x="281" y="118"/>
      <point x="296" y="154"/>
      <point x="296" y="176" type="qcurve" smooth="yes"/>
      <point x="296" y="499" type="line"/>
      <point x="406" y="499" type="line"/>
    </contour>
    <contour>
      <point x="221" y="545" type="move" name="tonos"/>
    </contour>
    <contour>
      <point x="221" y="545" type="move" name="top"/>
    </contour>
  </outline>
</glyph>
<glyph name="phi" format="1">
  <advance width="589"/>
  <unicode hex="03C6"/>
  <outline>
    <contour>
      <point x="31" y="313" type="line" smooth="yes"/>
      <point x="31" y="390"/>
      <point x="91" y="483"/>
      <point x="148" y="502" type="qcurve"/>
      <point x="207" y="420" type="line"/>
      <point x="173" y="413"/>
      <point x="141" y="372"/>
      <point x="141" y="313" type="qcurve" smooth="yes"/>
      <point x="141" y="172" type="line" smooth="yes"/>
      <point x="141" y="146"/>
      <point x="166" y="114"/>
      <point x="203" y="100"/>
      <point x="220" y="100" type="qcurve" smooth="yes"/>
      <point x="237" y="100" type="line"/>
      <point x="237" y="388" type="line" smooth="yes"/>
      <point x="237" y="440"/>
      <point x="310" y="506"/>
      <point x="371" y="506" type="qcurve" smooth="yes"/>
      <point x="428" y="506"/>
      <point x="511" y="454"/>
      <point x="557" y="365"/>
      <point x="557" y="307" type="qcurve" smooth="yes"/>
      <point x="557" y="189" type="line" smooth="yes"/>
      <point x="557" y="98"/>
      <point x="467" y="-7"/>
      <point x="371" y="-7" type="qcurve" smooth="yes"/>
      <point x="347" y="-7" type="line"/>
      <point x="347" y="-216" type="line"/>
      <point x="237" y="-204" type="line"/>
      <point x="237" y="-7" type="line"/>
      <point x="220" y="-7" type="line" smooth="yes"/>
      <point x="126" y="-7"/>
      <point x="31" y="98"/>
      <point x="31" y="189" type="qcurve" smooth="yes"/>
    </contour>
    <contour>
      <point x="371" y="100" type="line" smooth="yes"/>
      <point x="397" y="100"/>
      <point x="447" y="133"/>
      <point x="447" y="172" type="qcurve" smooth="yes"/>
      <point x="447" y="331" type="line" smooth="yes"/>
      <point x="447" y="345"/>
      <point x="441" y="376"/>
      <point x="427" y="403"/>
      <point x="403" y="420"/>
      <point x="384" y="420" type="qcurve" smooth="yes"/>
      <point x="366" y="420"/>
      <point x="347" y="398"/>
      <point x="347" y="380" type="qcurve" smooth="yes"/>
      <point x="347" y="100" type="line"/>
    </contour>
  </outline>
</glyph>
<glyph name="psi" format="1">
  <advance width="596"/>
  <unicode hex="03C8"/>
  <outline>
    <contour>
      <point x="529" y="505" type="line"/>
      <point x="549" y="480"/>
      <point x="561" y="426"/>
      <point x="561" y="387" type="qcurve" smooth="yes"/>
      <point x="561" y="189" type="line" smooth="yes"/>
      <point x="561" y="98"/>
      <point x="468" y="-7"/>
      <point x="372" y="-7" type="qcurve" smooth="yes"/>
      <point x="355" y="-7" type="line"/>
      <point x="355" y="-216" type="line"/>
      <point x="246" y="-204" type="line"/>
      <point x="246" y="-7" type="line"/>
      <point x="222" y="-7" type="line" smooth="yes"/>
      <point x="128" y="-7"/>
      <point x="35" y="98"/>
      <point x="35" y="189" type="qcurve" smooth="yes"/>
      <point x="35" y="499" type="line"/>
      <point x="145" y="499" type="line"/>
      <point x="145" y="172" type="line" smooth="yes"/>
      <point x="145" y="133"/>
      <point x="196" y="100"/>
      <point x="222" y="100" type="qcurve" smooth="yes"/>
      <point x="246" y="100" type="line"/>
      <point x="246" y="499" type="line"/>
      <point x="355" y="499" type="line"/>
      <point x="355" y="100" type="line"/>
      <point x="372" y="100" type="line" smooth="yes"/>
      <point x="390" y="100"/>
      <point x="426" y="114"/>
      <point x="451" y="146"/>
      <point x="451" y="172" type="qcurve" smooth="yes"/>
      <point x="451" y="387" type="line" smooth="yes"/>
      <point x="451" y="422"/>
      <point x="438" y="459"/>
      <point x="425" y="477" type="qcurve"/>
    </contour>
  </outline>
</glyph>
<glyph name="omega" format="1">
  <advance width="598"/>
  <unicode hex="03C9"/>
    <anchor name="tonos" x="299" y="545"/>
  <outline>
    <contour>
      <point x="458" y="498" type="line"/>
      <point x="565" y="457"/>
      <point x="565" y="315" type="qcurve" smooth="yes"/>
      <point x="565" y="186" type="line" smooth="yes"/>
      <point x="565" y="87"/>
      <point x="485" y="-13"/>
      <point x="412" y="-13" type="qcurve" smooth="yes"/>
      <point x="390" y="-13"/>
      <point x="347" y="-1"/>
      <point x="313" y="23"/>
      <point x="301" y="40" type="qcurve"/>
      <point x="287" y="23"/>
      <point x="252" y="-1"/>
      <point x="211" y="-13"/>
      <point x="188" y="-13" type="qcurve" smooth="yes"/>
      <point x="116" y="-13"/>
      <point x="32" y="87"/>
      <point x="32" y="186" type="qcurve" smooth="yes"/>
      <point x="32" y="315" type="line" smooth="yes"/>
      <point x="32" y="386"/>
      <point x="89" y="478"/>
      <point x="141" y="498" type="qcurve"/>
      <point x="204" y="436" type="line"/>
      <point x="173" y="423"/>
      <point x="146" y="375"/>
      <point x="146" y="324" type="qcurve" smooth="yes"/>
      <point x="146" y="175" type="line" smooth="yes"/>
      <point x="146" y="131"/>
      <point x="173" y="100"/>
      <point x="194" y="100" type="qcurve" smooth="yes"/>
      <point x="216" y="100"/>
      <point x="246" y="128"/>
      <point x="246" y="175" type="qcurve" smooth="yes"/>
      <point x="246" y="296" type="line"/>
      <point x="356" y="296" type="line"/>
      <point x="356" y="175" type="line" smooth="yes"/>
      <point x="356" y="128"/>
      <point x="385" y="100"/>
      <point x="407" y="100" type="qcurve" smooth="yes"/>
      <point x="427" y="100"/>
      <point x="455" y="131"/>
      <point x="455" y="175" type="qcurve" smooth="yes"/>
      <point x="455" y="324" type="line" smooth="yes"/>
      <point x="455" y="375"/>
      <point x="426" y="423"/>
      <point x="395" y="436" type="qcurve"/>
    </contour>
    <contour>
      <point x="299" y="545" type="move" name="tonos"/>
    </contour>
  </outline>
</glyph>
<glyph name="bullet" format="1">
  <advance width="416"/>
  <unicode hex="2022"/>
  <outline>
    <contour>
      <point x="331" y="462" type="qcurve"/>
      <point x="385" y="410"/>
      <point x="385" y="337" type="qcurve" smooth="yes"/>
      <point x="385" y="300"/>
      <point x="357" y="236"/>
      <point x="331" y="210" type="qcurve" smooth="yes"/>
      <point x="280" y="158"/>
      <point x="206" y="158" type="qcurve" smooth="yes"/>
      <point x="132" y="158"/>
      <point x="79" y="210" type="qcurve"/>
      <point x="28" y="263"/>
      <point x="28" y="337" type="qcurve" smooth="yes"/>
      <point x="28" y="411"/>
      <point x="79" y="462" type="qcurve" smooth="yes"/>
      <point x="132" y="514"/>
      <point x="206" y="514" type="qcurve" smooth="yes"/>
      <point x="280" y="514"/>
    </contour>
  </outline>
</glyph>
<glyph name="ffl" format="1">
  <advance width="649"/>
  <unicode hex="FB04"/>
  <outline>
    <contour>
      <point x="494" y="590" type="line"/>
      <point x="483" y="593"/>
      <point x="463" y="596"/>
      <point x="453" y="596" type="qcurve" smooth="yes"/>
      <point x="425" y="596"/>
      <point x="384" y="564"/>
      <point x="384" y="532" type="qcurve" smooth="yes"/>
      <point x="384" y="499" type="line"/>
      <point x="473" y="499" type="line"/>
      <point x="449" y="396" type="line"/>
      <point x="384" y="396" type="line"/>
      <point x="384" y="0" type="line"/>
      <point x="269" y="0" type="line"/>
      <point x="268" y="493" type="line"/>
      <point x="269" y="524"/>
      <point x="272" y="555"/>
      <point x="278" y="573"/>
      <point x="280" y="582" type="qcurve"/>
      <point x="273" y="588"/>
      <point x="248" y="596"/>
      <point x="231" y="596" type="qcurve" smooth="yes"/>
      <point x="212" y="596"/>
      <point x="175" y="581"/>
      <point x="151" y="550"/>
      <point x="151" y="526" type="qcurve" smooth="yes"/>
      <point x="151" y="499" type="line"/>
      <point x="238" y="499" type="line"/>
      <point x="214" y="396" type="line"/>
      <point x="151" y="396" type="line"/>
      <point x="151" y="0" type="line"/>
      <point x="39" y="0" type="line"/>
      <point x="39" y="536" type="line" smooth="yes"/>
      <point x="39" y="555"/>
      <point x="55" y="611"/>
      <point x="95" y="666"/>
      <point x="170" y="703"/>
      <point x="228" y="703" type="qcurve" smooth="yes"/>
      <point x="254" y="703"/>
      <point x="315" y="694"/>
      <point x="349" y="685" type="qcurve"/>
      <point x="373" y="697"/>
      <point x="427" y="705"/>
      <point x="461" y="705" type="qcurve"/>
      <point x="492" y="704"/>
      <point x="564" y="694"/>
      <point x="606" y="685" type="qcurve"/>
      <point x="606" y="0" type="line"/>
      <point x="494" y="0" type="line"/>
    </contour>
  </outline>
</glyph>
<glyph name="tonoscomb" format="1">
  <advance width="266"/>
    <anchor name="tonos" x="133" y="750"/>
    <anchor name="_tonos" x="133" y="600"/>
    <anchor name="tonos.1" x="133" y="750"/>
    <anchor name="_tonos.1" x="133" y="600"/>
    <anchor name="tonos.2" x="133" y="750"/>
    <anchor name="_tonos.2" x="133" y="600"/>
    <anchor name="tonos.3" x="133" y="750"/>
    <anchor name="_tonos.3" x="133" y="600"/>
    <anchor name="tonos.4" x="133" y="750"/>
    <anchor name="_tonos.4" x="133" y="600"/>
    <anchor name="tonos.5" x="133" y="750"/>
    <anchor name="_tonos.5" x="133" y="600"/>
    <anchor name="tonos.6" x="133" y="750"/>
    <anchor name="_tonos.6" x="133" y="600"/>
    <anchor name="tonos.7" x="133" y="750"/>
    <anchor name="_tonos.7" x="133" y="600"/>
    <anchor name="tonos.8" x="133" y="750"/>
    <anchor name="_tonos.8" x="133" y="600"/>
    <anchor name="tonos.9" x="133" y="750"/>
    <anchor name="_tonos.9" x="133" y="600"/>
    <anchor name="tonos.10" x="133" y="750"/>
    <anchor name="_tonos.10" x="133" y="600"/>
    <anchor name="tonos.11" x="133" y="750"/>
    <anchor name="_tonos.11" x="133" y="600"/>
    <anchor name="tonos.12" x="133" y="750"/>
    <anchor name="_tonos.12" x="133" y="600"/>
    <anchor name="tonos.13" x="133" y="750"/>
    <anchor name="_tonos.13" x="133" y="600"/>
    <anchor name="tonos.14" x="133" y="750"/>
    <anchor name="_tonos.14" x="133" y="600"/>
  <outline>
    <contour>
      <point x="207" y="671" type="qcurve" smooth="yes"/>
      <point x="149" y="596" type="line"/>
      <point x="105" y="596" type="line"/>
      <point x="135" y="712" type="line" smooth="yes"/>
      <point x="140" y="732"/>
      <point x="181" y="753"/>
      <point x="200" y="741" type="qcurve"/>
      <point x="219" y="731"/>
      <point x="221" y="688"/>
    </contour>
    <contour>
      <point x="133" y="750" type="move" name="tonos"/>
    </contour>
    <contour>
      <point x="133" y="600" type="move" name="_tonos"/>
    </contour>
    <contour>
      <point x="133" y="750" type="move" name="tonos.1"/>
    </contour>
    <contour>
      <point x="133" y="600" type="move" name="_tonos.1"/>
    </contour>
    <contour>
      <point x="133" y="750" type="move" name="tonos.2"/>
    </contour>
    <contour>
      <point x="133" y="600" type="move" name="_tonos.2"/>
    </contour>
    <contour>
      <point x="133" y="750" type="move" name="tonos.3"/>
    </contour>
    <contour>
      <point x="133" y="600" type="move" name="_tonos.3"/>
    </contour>
    <contour>
      <point x="133" y="750" type="move" name="tonos.4"/>
    </contour>
    <contour>
      <point x="133" y="600" type="move" name="_tonos.4"/>
    </contour>
    <contour>
      <point x="133" y="750" type="move" name="tonos.5"/>
    </contour>
    <contour>
      <point x="133" y="600" type="move" name="_tonos.5"/>
    </contour>
    <contour>
      <point x="133" y="750" type="move" name="tonos.6"/>
    </contour>
    <contour>
      <point x="133" y="600" type="move" name="_tonos.6"/>
    </contour>
    <contour>
      <point x="133" y="750" type="move" name="tonos.7"/>
    </contour>
    <contour>
      <point x="133" y="600" type="move" name="_tonos.7"/>
    </contour>
    <contour>
      <point x="133" y="750" type="move" name="tonos.8"/>
    </contour>
    <contour>
      <point x="133" y="600" type="move" name="_tonos.8"/>
    </contour>
    <contour>
      <point x="133" y="750" type="move" name="tonos.9"/>
    </contour>
    <contour>
      <point x="133" y="600" type="move" name="_tonos.9"/>
    </contour>
    <contour>
      <point x="133" y="750" type="move" name="tonos.10"/>
    </contour>
    <contour>
      <point x="133" y="600" type="move" name="_tonos.10"/>
    </contour>
    <contour>
      <point x="133" y="750" type="move" name="tonos.11"/>
    </contour>
    <contour>
      <point x="133" y="600" type="move" name="_tonos.11"/>
    </contour>
    <contour>
      <point x="133" y="750" type="move" name="tonos.12"/>
    </contour>
    <contour>
      <point x="133" y="600" type="move" name="_tonos.12"/>
    </contour>
    <contour>
      <point x="133" y="750" type="move" name="tonos.13"/>
    </contour>
    <contour>
      <point x="133" y="600" type="move" name="_tonos.13"/>
    </contour>
    <contour>
      <point x="133" y="750" type="move" name="tonos.14"/>
    </contour>
    <contour>
      <point x="133" y="600" type="move" name="_tonos.14"/>
    </contour>
  </outline>
</glyph>
